<svg xmlns="http://www.w3.org/2000/svg" viewBox="0 0 96 96">
  <!-- Map badge: a mossy rock face with the dark mouth of a cave at its foot. -->
  <defs>
    <clipPath id="inside"><circle cx="48" cy="48" r="42"/></clipPath>
  </defs>

  <circle cx="48" cy="48" r="45" fill="#ece0c0"/>
  <g clip-path="url(#inside)">
    <path d="M0 75H96V96H0z" fill="#5c6a2c"/>
    <path d="M0 75H96" stroke="#33281c" stroke-width="2.4"/>
  </g>
  <!-- The rock face, mossed over on top. -->
  <g stroke="#33281c" stroke-width="2.8" stroke-linejoin="round">
    <path d="M6 75l6-26 14-16 18-6 20 4 14 14 8 30z" fill="#a39d90"/>
    <path d="M12 49l14-16 18-6 20 4 14 14-2 6q-12-8-22-6-10-4-20 2-12 0-22 2z" fill="#7d8a52"/>
  </g>
  <path d="M20 58l6 4M66 56l6 6M58 66l4-4" stroke="#33281c" stroke-width="1.6" stroke-linecap="round"/>

  <!-- The cave's mouth. -->
  <path d="M32 75V62q0-12 14-12t14 12v13z" fill="#2a2016" stroke="#33281c" stroke-width="2.6" stroke-linejoin="round"/>
  <path d="M40 75l3-5 3 3 3-6 3 8z" fill="#b4432b" stroke="#33281c" stroke-width="1.6" stroke-linejoin="round"/>
  <circle cx="48" cy="48" r="45" fill="none" stroke="#33281c" stroke-width="4"/>
</svg>
