<svg xmlns="http://www.w3.org/2000/svg" viewBox="0 0 96 96">
  <!-- Map badge: a brick water tower, a wide tank under a conical roof on a tapering shaft. -->
  <defs>
    <clipPath id="inside"><circle cx="48" cy="48" r="42"/></clipPath>
  </defs>

  <circle cx="48" cy="48" r="45" fill="#ece0c0"/>
  <g clip-path="url(#inside)">
    <path d="M0 73H96V96H0z" fill="#a39d90"/>
    <path d="M0 73H96" stroke="#33281c" stroke-width="2.4"/>
  </g>

  <g stroke="#33281c" stroke-width="2.8" stroke-linejoin="round">
    <!-- Brick shaft. -->
    <path d="M39 42h18l3 31H36z" fill="#9a6448"/>
    <!-- Tank and roof. -->
    <path d="M25 28h46v15H25z" fill="#cbc2ad"/>
    <path d="M22 29 48 13 74 29z" fill="#6b665c"/>
  </g>
  <!-- Arched window and door in the shaft, windows round the tank. -->
  <path d="M45 54v-4a3 3 0 0 1 6 0v4zM44 73v-6a4 4 0 0 1 8 0v6z" fill="#33281c"/>
  <path d="M31 33h5v5h-5zM45.5 33h5v5h-5zM60 33h5v5h-5z" fill="#33281c"/>

  <circle cx="48" cy="48" r="45" fill="none" stroke="#33281c" stroke-width="4"/>
</svg>
